name random_motion_10s.mot
datacolumns 16
datarows 17
range 0.00000000 0.01600000
endheader
time	lumbar_extension	lumbar_bending	lumbar_rotation	ankle_angle	subtalar_angle	mtp_angle	knee_flexion	knee_adduction	knee_rotation	knee_tx	knee_ty	knee_tz	hip_flexion	hip_adduction	hip_rotation	
          0.00000000	        -21.64864664	          9.15187386	         -5.04089201	         -8.51248281	         -4.12739765	          2.44546232	        -13.14967475	         -2.56223710	         -1.34574449	          0.00313501	          0.03859739	         -0.00299353	        -17.74266947	          2.34707440	        -15.70391183	
          0.00100000	        -20.08292680	         10.97681582	         -5.35699922	          3.86889881	         -8.80261753	         -3.93449491	        -57.35464401	         -4.65373972	          4.47625131	          0.00387152	          0.03026258	          0.00153431	         13.91566282	         -1.13336544	         -3.37070032	
          0.00200000	        -26.11459162	          7.48272763	         -3.07023661	        -12.22572548	         -3.13871936	        -10.92269532	        -25.39321350	         -5.42118576	         -2.72458290	         -0.00468287	          0.04189305	         -0.00053666	        -20.49151520	         -1.74887944	         -7.58657181	
          0.00300000	        -23.81034253	          8.82767919	         -4.83102687	         -6.23294166	         -7.06882249	         -6.79825911	        -56.06090493	         -2.03192888	          1.35170833	         -0.00826600	          0.04395216	          0.00212515	         19.93003183	         -2.90776747	        -15.45060504	
          0.00400000	        -21.97431958	          4.53148426	         -4.07395064	          7.54260233	         -6.39561807	        -10.07233211	        -58.08832616	          1.75035529	          1.24368939	         -0.00495804	          0.04346641	         -0.00713861	          2.09495243	          9.19824417	        -12.62497861	
          0.00500000	        -25.72287004	          4.84870685	         -4.10451683	         -2.56047127	         -7.02229651	        -15.04966273	        -53.60205908	          4.31679012	          4.28987906	         -0.00380770	          0.03486753	          0.00586496	        -25.32074572	          3.37090481	         -5.07273254	
          0.00600000	        -23.58128819	          4.37277787	         -4.82907631	         -4.45780771	        -13.00892788	         -5.23519355	        -52.05517275	         -4.99120676	          2.21962747	          0.00152904	          0.03413180	         -0.00979183	          3.52879834	         -1.58718602	         -9.60836624	
          0.00700000	        -27.86216813	          6.99505455	         -5.70025055	          1.73277151	         -2.33721849	         -3.91279879	        -60.80511893	         -3.68050078	          2.26088971	         -0.00523480	          0.04281240	         -0.00875747	        -12.92677627	          0.40800219	         -4.97575985	
          0.00800000	        -20.38752461	          7.02151200	         -4.86899015	        -10.33002209	         -3.95301996	          1.17582618	        -33.60491268	          2.24370304	         -0.50652511	         -0.00535958	          0.03261510	          0.00136057	         11.34844946	          1.85143798	         -4.21806501	
          0.00900000	        -25.05656322	          8.14672648	         -2.36990816	          0.84155797	        -14.54857634	          0.21107767	        -49.15663002	         -0.76918656	         -0.71504446	          0.00408491	          0.02812523	         -0.00529074	         -5.72665846	          2.46111583	         -9.88491614	
          0.01000000	        -23.47920436	          4.20864708	         -4.85527268	         -4.84128020	         -5.56203446	         -9.85237653	        -61.57876234	          4.11921621	         -5.15903619	         -0.00672601	          0.02500260	          0.00048599	          3.29693936	          5.40294962	        -14.88703466	
          0.01100000	        -20.03939012	         11.69126989	         -2.77512343	         -1.07013547	         -3.64837842	         -6.53040995	        -45.59587780	         -5.13919627	          0.46412253	          0.00263479	          0.02794981	          0.00414463	         -7.58814051	          5.02516551	         -2.08678886	
          0.01200000	        -22.86858804	          2.67018146	         -2.91696179	         -9.61868723	        -14.15790686	          0.40231626	        -64.70935092	          3.00384234	          3.40700163	          0.00359596	          0.02504802	         -0.00621578	         -0.44485046	          8.61951322	         -8.75344217	
          0.01300000	        -22.56808291	          5.39936938	         -2.26855403	         -2.74550789	        -10.40344362	         -0.89744575	        -43.76024864	          1.28407222	         -2.21147831	         -0.00916180	          0.02868176	          0.00117451	         14.10804528	         -2.97370534	        -12.90975894	
          0.01400000	        -21.21493213	          3.92737674	         -5.82323627	          2.24201858	        -13.68950317	         -3.77493370	        -16.13549054	         -0.32997990	         -5.27027625	         -0.00063275	          0.03253296	          0.00806948	        -14.08514595	         -0.15765605	         -8.02941257	
          0.01500000	        -20.19719452	          8.61636900	         -4.92501442	          6.89422442	         -5.85245458	        -16.59274314	        -50.24947189	          2.42421468	          3.81034497	         -0.00136732	          0.02650884	          0.00306331	        -19.66536046	         -2.70768163	         -6.95090718	
          0.01600000	        -23.65770114	         11.63879932	         -4.58965520	         -2.05225589	        -13.29801668	         -0.18102010	        -19.58992363	         -5.07906132	          1.16078024	          0.00228881	          0.02836982	         -0.00948776	        -24.07485374	         -2.61746506	         -8.26514134	
